<?xml version="1.0" encoding="UTF-8"?><svg xmlns="http://www.w3.org/2000/svg" width="63.99mm" height="87.83mm" xmlns:xlink="http://www.w3.org/1999/xlink" viewBox="0 0 181.4 248.97"><defs><style>.f{fill:url(#b);}.g,.h,.i,.j,.k,.l,.m{fill:none;}.n{fill:#e3d7cc;}.o{fill:#e6d1c0;}.p{fill:#b29589;}.q{fill:#947567;}.r{fill:#594a48;}.s{fill:#392d2c;}.t{fill:#574846;}.u{fill:#836863;font-family:Chalkduster, Chalkduster;font-size:3px;}.h{stroke:#392d2c;}.h,.j,.k,.l,.m{stroke-miterlimit:10;}.i{stroke:#004820;stroke-width:.3px;}.j{stroke:#b0774b;}.j,.k,.l,.m{stroke-width:.5px;}.k{stroke:#947567;}.l{stroke:#524957;}.m{stroke:#5c464a;}</style><pattern id="b" x="0" y="0" width="72" height="72" patternTransform="translate(-168.71 -329.48)" patternUnits="userSpaceOnUse" viewBox="0 0 72 72"><g><rect class="g" y="0" width="72" height="72"/><g><line class="i" x1="29.5" y1="73.12" x2="29.5" y2="71.37"/><line class="i" x1="29" y1="73.12" x2="28.56" y2="72"/><line class="i" x1="30" y1="73.12" x2="30.53" y2="72"/></g><g><line class="i" x1="70.5" y1="48.75" x2="77.38" y2="48.75"/><line class="i" x1="71.81" y1="35.37" x2="78.69" y2="35.37"/><line class="i" x1="71.5" y1="12.12" x2="78.38" y2="12.12"/><line class="i" x1="70.62" y1="3.5" x2="77.5" y2="3.5"/><line class="i" x1="70.94" y1="65.38" x2="75.31" y2="65.38"/></g><g><line class="i" x1="17.06" y1="69.38" x2="23.94" y2="69.38"/><line class="i" x1="30.06" y1="65.88" x2="36.94" y2="65.88"/><line class="i" x1="56.19" y1="67.63" x2="63.06" y2="67.63"/><line class="i" x1="59.06" y1="62" x2="65.94" y2="62"/><line class="i" x1="48.06" y1="58.75" x2="54.94" y2="58.75"/><line class="i" x1="35.56" y1="56.12" x2="42.44" y2="56.12"/><line class="i" x1="22.56" y1="52.87" x2="29.44" y2="52.87"/><line class="i" x1="34.06" y1="48.62" x2="40.94" y2="48.62"/><line class="i" x1="45.56" y1="44.37" x2="52.44" y2="44.37"/><line class="i" x1="40.31" y1="40.5" x2="47.19" y2="40.5"/><line class="i" x1="54.06" y1="52.75" x2="60.94" y2="52.75"/><line class="i" x1="53.81" y1="37.25" x2="60.69" y2="37.25"/><line class="i" x1="11.56" y1="62.12" x2="18.44" y2="62.12"/><line class="i" x1=".56" y1="58.87" x2="7.44" y2="58.87"/><line class="i" x1="6.56" y1="52.87" x2="13.44" y2="52.87"/><line class="i" x1="-1.5" y1="48.75" x2="5.38" y2="48.75"/><line class="i" x1="5.69" y1="44.25" x2="12.56" y2="44.25"/><line class="i" x1="20.81" y1="41.5" x2="27.69" y2="41.5"/><line class="i" x1="29.31" y1="37.25" x2="36.19" y2="37.25"/><line class="i" x1="22.81" y1="30.12" x2="29.69" y2="30.12"/><line class="i" x1="35.31" y1="31.25" x2="42.19" y2="31.25"/><line class="i" x1="3.81" y1="31.37" x2="10.69" y2="31.37"/><line class="i" x1="-.19" y1="35.37" x2="6.69" y2="35.37"/><line class="i" x1="-.5" y1="12.12" x2="6.38" y2="12.12"/><line class="i" x1="11.5" y1="16.12" x2="18.38" y2="16.12"/><line class="i" x1="13.12" y1="22.75" x2="20" y2="22.75"/><line class="i" x1="6" y1="6.75" x2="12.88" y2="6.75"/><line class="i" x1="-1.38" y1="3.5" x2="5.5" y2="3.5"/><line class="i" x1="28.31" y1="21.37" x2="35.19" y2="21.37"/><line class="i" x1="41.81" y1="25.87" x2="48.69" y2="25.87"/><line class="i" x1="41" y1="18" x2="47.88" y2="18"/><line class="i" x1="52" y1="21.25" x2="58.88" y2="21.25"/><line class="i" x1="59" y1="16" x2="65.88" y2="16"/><line class="i" x1="34.5" y1="10.87" x2="41.38" y2="10.87"/><line class="i" x1="27" y1="7.87" x2="33.88" y2="7.87"/><line class="i" x1="26.06" y1="1.12" x2="32.94" y2="1.12"/><line class="i" x1="38.5" y1="3.62" x2="45.38" y2="3.62"/><line class="i" x1="53.5" y1="6.62" x2="60.38" y2="6.62"/><line class="i" x1="63.69" y1="53.5" x2="70.56" y2="53.5"/><line class="i" x1="64.81" y1="40.62" x2="71.69" y2="40.62"/><line class="i" x1="65.5" y1="18" x2="72.38" y2="18"/><line class="i" x1="66.31" y1="26" x2="73.19" y2="26"/><line class="i" x1="20.5" y1="69.38" x2="20.5" y2="67.63"/><line class="i" x1="33.5" y1="65.88" x2="33.5" y2="64.13"/><line class="i" x1="59.62" y1="67.63" x2="59.62" y2="65.88"/><line class="i" x1="62.5" y1="62" x2="62.5" y2="60.25"/><line class="i" x1="51.5" y1="58.75" x2="51.5" y2="57"/><line class="i" x1="39" y1="56.12" x2="39" y2="54.37"/><line class="i" x1="26" y1="52.87" x2="26" y2="51.12"/><line class="i" x1="37.5" y1="48.62" x2="37.5" y2="46.87"/><line class="i" x1="49" y1="44.37" x2="49" y2="42.62"/><line class="i" x1="43.75" y1="40.5" x2="43.75" y2="38.75"/><line class="i" x1="57.5" y1="52.75" x2="57.5" y2="51"/><line class="i" x1="57.25" y1="37.25" x2="57.25" y2="35.5"/><line class="i" x1="15" y1="62.12" x2="15" y2="60.37"/><line class="i" x1="4" y1="58.87" x2="4" y2="57.12"/><line class="i" x1="10" y1="52.87" x2="10" y2="51.12"/><line class="i" x1="1.94" y1="48.75" x2="1.94" y2="47"/><line class="i" x1="9.12" y1="44.25" x2="9.12" y2="42.5"/><line class="i" x1="24.25" y1="41.5" x2="24.25" y2="39.75"/><line class="i" x1="32.75" y1="37.25" x2="32.75" y2="35.5"/><line class="i" x1="26.25" y1="30.12" x2="26.25" y2="28.37"/><line class="i" x1="38.75" y1="31.25" x2="38.75" y2="29.5"/><line class="i" x1="69.75" y1="26" x2="69.75" y2="24.25"/><line class="i" x1="7.25" y1="31.37" x2="7.25" y2="29.62"/><line class="i" x1="3.25" y1="35.37" x2="3.25" y2="33.62"/><line class="i" x1="2.94" y1="12.12" x2="2.94" y2="10.37"/><line class="i" x1="14.94" y1="16.12" x2="14.94" y2="14.37"/><line class="i" x1="16.56" y1="22.75" x2="16.56" y2="21"/><line class="i" x1="9.44" y1="6.75" x2="9.44" y2="5"/><line class="i" x1="2.06" y1="3.5" x2="2.06" y2="1.75"/><line class="i" x1="31.75" y1="21.37" x2="31.75" y2="19.62"/><line class="i" x1="45.25" y1="25.87" x2="45.25" y2="24.12"/><line class="i" x1="44.44" y1="18" x2="44.44" y2="16.25"/><line class="i" x1="55.44" y1="21.25" x2="55.44" y2="19.5"/><line class="i" x1="62.44" y1="16" x2="62.44" y2="14.25"/><line class="i" x1="37.94" y1="10.87" x2="37.94" y2="9.12"/><line class="i" x1="30.44" y1="7.87" x2="30.44" y2="6.12"/><line class="i" x1="29.5" y1="1.12" x2="29.5" y2="-.63"/><line class="i" x1="41.94" y1="3.62" x2="41.94" y2="1.87"/><line class="i" x1="56.94" y1="6.62" x2="56.94" y2="4.87"/><line class="i" x1="67.12" y1="53.5" x2="67.12" y2="51.75"/><line class="i" x1="68.25" y1="40.62" x2="68.25" y2="38.87"/><line class="i" x1="68.94" y1="18" x2="68.94" y2="16.25"/><line class="i" x1="20" y1="69.38" x2="19.56" y2="68.25"/><line class="i" x1="33" y1="65.88" x2="32.56" y2="64.75"/><line class="i" x1="59.12" y1="67.63" x2="58.69" y2="66.5"/><line class="i" x1="62" y1="62" x2="61.56" y2="60.87"/><line class="i" x1="51" y1="58.75" x2="50.56" y2="57.62"/><line class="i" x1="38.5" y1="56.12" x2="38.06" y2="55"/><line class="i" x1="25.5" y1="52.87" x2="25.06" y2="51.75"/><line class="i" x1="37" y1="48.62" x2="36.56" y2="47.5"/><line class="i" x1="48.5" y1="44.37" x2="48.06" y2="43.25"/><line class="i" x1="43.25" y1="40.5" x2="42.81" y2="39.37"/><line class="i" x1="57" y1="52.75" x2="56.56" y2="51.62"/><line class="i" x1="56.75" y1="37.25" x2="56.31" y2="36.12"/><line class="i" x1="14.5" y1="62.12" x2="14.06" y2="61"/><line class="i" x1="3.5" y1="58.87" x2="3.06" y2="57.75"/><line class="i" x1="9.5" y1="52.87" x2="9.06" y2="51.75"/><line class="i" x1="1.44" y1="48.75" x2="1" y2="47.62"/><line class="i" x1="8.62" y1="44.25" x2="8.19" y2="43.12"/><line class="i" x1="23.75" y1="41.5" x2="23.31" y2="40.37"/><line class="i" x1="32.25" y1="37.25" x2="31.81" y2="36.12"/><line class="i" x1="25.75" y1="30.12" x2="25.31" y2="29"/><line class="i" x1="38.25" y1="31.25" x2="37.81" y2="30.12"/><line class="i" x1="6.75" y1="31.37" x2="6.31" y2="30.25"/><line class="i" x1="2.75" y1="35.37" x2="2.31" y2="34.25"/><line class="i" x1="2.44" y1="12.12" x2="2" y2="11"/><line class="i" x1="14.44" y1="16.12" x2="14" y2="15"/><line class="i" x1="16.06" y1="22.75" x2="15.62" y2="21.62"/><line class="i" x1="8.94" y1="6.75" x2="8.5" y2="5.62"/><line class="i" x1="1.56" y1="3.5" x2="1.12" y2="2.37"/><line class="i" x1="31.25" y1="21.37" x2="30.81" y2="20.25"/><line class="i" x1="44.75" y1="25.87" x2="44.31" y2="24.75"/><line class="i" x1="43.94" y1="18" x2="43.5" y2="16.87"/><line class="i" x1="54.94" y1="21.25" x2="54.5" y2="20.12"/><line class="i" x1="61.94" y1="16" x2="61.5" y2="14.87"/><line class="i" x1="37.44" y1="10.87" x2="37" y2="9.75"/><line class="i" x1="29.94" y1="7.87" x2="29.5" y2="6.75"/><line class="i" x1="29" y1="1.12" x2="28.56" y2="0"/><line class="i" x1="41.44" y1="3.62" x2="41" y2="2.5"/><line class="i" x1="56.44" y1="6.62" x2="56" y2="5.5"/><line class="i" x1="66.62" y1="53.5" x2="66.19" y2="52.37"/><line class="i" x1="67.75" y1="40.62" x2="67.31" y2="39.5"/><line class="i" x1="68.44" y1="18" x2="68" y2="16.87"/><line class="i" x1="69.25" y1="26" x2="68.81" y2="24.87"/><line class="i" x1="19.41" y1="69.38" x2="18.78" y2="68.75"/><line class="i" x1="32.41" y1="65.88" x2="31.78" y2="65.25"/><line class="i" x1="58.53" y1="67.63" x2="57.91" y2="67"/><line class="i" x1="61.41" y1="62" x2="60.78" y2="61.37"/><line class="i" x1="50.41" y1="58.75" x2="49.78" y2="58.12"/><line class="i" x1="37.91" y1="56.12" x2="37.28" y2="55.5"/><line class="i" x1="24.91" y1="52.87" x2="24.28" y2="52.25"/><line class="i" x1="36.41" y1="48.62" x2="35.78" y2="48"/><line class="i" x1="47.91" y1="44.37" x2="47.28" y2="43.75"/><line class="i" x1="42.66" y1="40.5" x2="42.03" y2="39.87"/><line class="i" x1="56.41" y1="52.75" x2="55.78" y2="52.12"/><line class="i" x1="56.16" y1="37.25" x2="55.53" y2="36.62"/><line class="i" x1="13.91" y1="62.12" x2="13.28" y2="61.5"/><line class="i" x1="2.91" y1="58.87" x2="2.28" y2="58.25"/><line class="i" x1="8.91" y1="52.87" x2="8.28" y2="52.25"/><line class="i" x1=".84" y1="48.75" x2=".22" y2="48.12"/><line class="i" x1="8.03" y1="44.25" x2="7.41" y2="43.62"/><line class="i" x1="23.16" y1="41.5" x2="22.53" y2="40.87"/><line class="i" x1="31.66" y1="37.25" x2="31.03" y2="36.62"/><line class="i" x1="25.16" y1="30.12" x2="24.53" y2="29.5"/><line class="i" x1="37.66" y1="31.25" x2="37.03" y2="30.62"/><line class="i" x1="6.16" y1="31.37" x2="5.53" y2="30.75"/><line class="i" x1="2.16" y1="35.37" x2="1.53" y2="34.75"/><line class="i" x1="1.84" y1="12.12" x2="1.22" y2="11.5"/><line class="i" x1="13.84" y1="16.12" x2="13.22" y2="15.5"/><line class="i" x1="15.47" y1="22.75" x2="14.84" y2="22.12"/><line class="i" x1="8.34" y1="6.75" x2="7.72" y2="6.12"/><line class="i" x1=".97" y1="3.5" x2=".34" y2="2.87"/><line class="i" x1="30.66" y1="21.37" x2="30.03" y2="20.75"/><line class="i" x1="44.16" y1="25.87" x2="43.53" y2="25.25"/><line class="i" x1="43.34" y1="18" x2="42.72" y2="17.37"/><line class="i" x1="54.34" y1="21.25" x2="53.72" y2="20.62"/><line class="i" x1="61.34" y1="16" x2="60.72" y2="15.37"/><line class="i" x1="36.84" y1="10.87" x2="36.22" y2="10.25"/><line class="i" x1="29.34" y1="7.87" x2="28.72" y2="7.25"/><line class="i" x1="28.41" y1="1.12" x2="27.78" y2=".5"/><line class="i" x1="40.84" y1="3.62" x2="40.22" y2="3"/><line class="i" x1="55.84" y1="6.62" x2="55.22" y2="6"/><line class="i" x1="66.03" y1="53.5" x2="65.41" y2="52.87"/><line class="i" x1="67.16" y1="40.62" x2="66.53" y2="40"/><line class="i" x1="67.84" y1="18" x2="67.22" y2="17.37"/><line class="i" x1="68.66" y1="26" x2="68.03" y2="25.37"/><line class="i" x1="21" y1="69.38" x2="21.53" y2="68.25"/><line class="i" x1="34" y1="65.88" x2="34.53" y2="64.75"/><line class="i" x1="60.12" y1="67.63" x2="60.66" y2="66.5"/><line class="i" x1="63" y1="62" x2="63.53" y2="60.87"/><line class="i" x1="52" y1="58.75" x2="52.53" y2="57.62"/><line class="i" x1="39.5" y1="56.12" x2="40.03" y2="55"/><line class="i" x1="26.5" y1="52.87" x2="27.03" y2="51.75"/><line class="i" x1="38" y1="48.62" x2="38.53" y2="47.5"/><line class="i" x1="49.5" y1="44.37" x2="50.03" y2="43.25"/><line class="i" x1="44.25" y1="40.5" x2="44.78" y2="39.37"/><line class="i" x1="58" y1="52.75" x2="58.53" y2="51.62"/><line class="i" x1="57.75" y1="37.25" x2="58.28" y2="36.12"/><line class="i" x1="15.5" y1="62.12" x2="16.03" y2="61"/><line class="i" x1="4.5" y1="58.87" x2="5.03" y2="57.75"/><line class="i" x1="10.5" y1="52.87" x2="11.03" y2="51.75"/><line class="i" x1="2.44" y1="48.75" x2="2.97" y2="47.62"/><line class="i" x1="9.62" y1="44.25" x2="10.16" y2="43.12"/><line class="i" x1="24.75" y1="41.5" x2="25.28" y2="40.37"/><line class="i" x1="33.25" y1="37.25" x2="33.78" y2="36.12"/><line class="i" x1="26.75" y1="30.12" x2="27.28" y2="29"/><line class="i" x1="39.25" y1="31.25" x2="39.78" y2="30.12"/><line class="i" x1="69.44" y1="18" x2="69.97" y2="16.87"/><line class="i" x1="70.25" y1="26" x2="70.78" y2="24.87"/><line class="i" x1="7.75" y1="31.37" x2="8.28" y2="30.25"/><line class="i" x1="3.75" y1="35.37" x2="4.28" y2="34.25"/><line class="i" x1="3.44" y1="12.12" x2="3.97" y2="11"/><line class="i" x1="15.44" y1="16.12" x2="15.97" y2="15"/><line class="i" x1="17.06" y1="22.75" x2="17.59" y2="21.62"/><line class="i" x1="9.94" y1="6.75" x2="10.47" y2="5.62"/><line class="i" x1="2.56" y1="3.5" x2="3.09" y2="2.37"/><line class="i" x1="32.25" y1="21.37" x2="32.78" y2="20.25"/><line class="i" x1="45.75" y1="25.87" x2="46.28" y2="24.75"/><line class="i" x1="44.94" y1="18" x2="45.47" y2="16.87"/><line class="i" x1="55.94" y1="21.25" x2="56.47" y2="20.12"/><line class="i" x1="62.94" y1="16" x2="63.47" y2="14.87"/><line class="i" x1="38.44" y1="10.87" x2="38.97" y2="9.75"/><line class="i" x1="30.94" y1="7.87" x2="31.47" y2="6.75"/><line class="i" x1="30" y1="1.12" x2="30.53" y2="0"/><line class="i" x1="42.44" y1="3.62" x2="42.97" y2="2.5"/><line class="i" x1="57.44" y1="6.62" x2="57.97" y2="5.5"/><line class="i" x1="67.62" y1="53.5" x2="68.16" y2="52.37"/><line class="i" x1="68.75" y1="40.62" x2="69.28" y2="39.5"/><line class="i" x1="21.56" y1="69.38" x2="22.25" y2="68.69"/><line class="i" x1="34.56" y1="65.88" x2="35.25" y2="65.19"/><line class="i" x1="60.69" y1="67.63" x2="61.38" y2="66.94"/><line class="i" x1="63.56" y1="62" x2="64.25" y2="61.31"/><line class="i" x1="52.56" y1="58.75" x2="53.25" y2="58.06"/><line class="i" x1="40.06" y1="56.12" x2="40.75" y2="55.44"/><line class="i" x1="27.06" y1="52.87" x2="27.75" y2="52.19"/><line class="i" x1="38.56" y1="48.62" x2="39.25" y2="47.94"/><line class="i" x1="50.06" y1="44.37" x2="50.75" y2="43.69"/><line class="i" x1="44.81" y1="40.5" x2="45.5" y2="39.81"/><line class="i" x1="58.56" y1="52.75" x2="59.25" y2="52.06"/><line class="i" x1="58.31" y1="37.25" x2="59" y2="36.56"/><line class="i" x1="16.06" y1="62.12" x2="16.75" y2="61.44"/><line class="i" x1="5.06" y1="58.87" x2="5.75" y2="58.19"/><line class="i" x1="11.06" y1="52.87" x2="11.75" y2="52.19"/><line class="i" x1="3" y1="48.75" x2="3.69" y2="48.06"/><line class="i" x1="69.31" y1="40.62" x2="70" y2="39.94"/><line class="i" x1="10.19" y1="44.25" x2="10.88" y2="43.56"/><line class="i" x1="25.31" y1="41.5" x2="26" y2="40.81"/><line class="i" x1="33.81" y1="37.25" x2="34.5" y2="36.56"/><line class="i" x1="27.31" y1="30.12" x2="28" y2="29.44"/><line class="i" x1="39.81" y1="31.25" x2="40.5" y2="30.56"/><line class="i" x1="70" y1="18" x2="70.69" y2="17.31"/><line class="i" x1="70.81" y1="26" x2="71.5" y2="25.31"/><line class="i" x1="8.31" y1="31.37" x2="9" y2="30.69"/><line class="i" x1="4.31" y1="35.37" x2="5" y2="34.69"/><line class="i" x1="4" y1="12.12" x2="4.69" y2="11.44"/><line class="i" x1="16" y1="16.12" x2="16.69" y2="15.44"/><line class="i" x1="17.62" y1="22.75" x2="18.31" y2="22.06"/><line class="i" x1="10.5" y1="6.75" x2="11.19" y2="6.06"/><line class="i" x1="3.12" y1="3.5" x2="3.81" y2="2.81"/><line class="i" x1="32.81" y1="21.37" x2="33.5" y2="20.69"/><line class="i" x1="46.31" y1="25.87" x2="47" y2="25.19"/><line class="i" x1="45.5" y1="18" x2="46.19" y2="17.31"/><line class="i" x1="56.5" y1="21.25" x2="57.19" y2="20.56"/><line class="i" x1="63.5" y1="16" x2="64.19" y2="15.31"/><line class="i" x1="39" y1="10.87" x2="39.69" y2="10.19"/><line class="i" x1="31.5" y1="7.87" x2="32.19" y2="7.19"/><line class="i" x1="30.56" y1="1.12" x2="31.25" y2=".44"/><line class="i" x1="43" y1="3.62" x2="43.69" y2="2.94"/><line class="i" x1="58" y1="6.62" x2="58.69" y2="5.94"/><line class="i" x1="68.19" y1="53.5" x2="68.88" y2="52.81"/><line class="i" x1="18.75" y1="69.75" x2="22.38" y2="69.75"/><line class="i" x1="31.75" y1="66.25" x2="35.38" y2="66.25"/><line class="i" x1="57.88" y1="68" x2="61.5" y2="68"/><line class="i" x1="60.75" y1="62.38" x2="64.38" y2="62.38"/><line class="i" x1="49.75" y1="59.13" x2="53.38" y2="59.13"/><line class="i" x1="37.25" y1="56.5" x2="40.88" y2="56.5"/><line class="i" x1="24.25" y1="53.25" x2="27.88" y2="53.25"/><line class="i" x1="35.75" y1="49" x2="39.38" y2="49"/><line class="i" x1="47.25" y1="44.75" x2="50.88" y2="44.75"/><line class="i" x1="42" y1="40.88" x2="45.63" y2="40.88"/><line class="i" x1="55.75" y1="53.13" x2="59.38" y2="53.13"/><line class="i" x1="55.5" y1="37.63" x2="59.13" y2="37.63"/><line class="i" x1="13.25" y1="62.5" x2="16.88" y2="62.5"/><line class="i" x1="2.25" y1="59.25" x2="5.88" y2="59.25"/><line class="i" x1="8.25" y1="53.25" x2="11.88" y2="53.25"/><line class="i" x1=".19" y1="49.13" x2="3.82" y2="49.13"/><line class="i" x1="7.38" y1="44.63" x2="11" y2="44.63"/><line class="i" x1="22.5" y1="41.88" x2="26.13" y2="41.88"/><line class="i" x1="31" y1="37.63" x2="34.63" y2="37.63"/><line class="i" x1="24.5" y1="30.5" x2="28.13" y2="30.5"/><line class="i" x1="37" y1="31.63" x2="40.63" y2="31.63"/><line class="i" x1="5.5" y1="31.75" x2="9.13" y2="31.75"/><line class="i" x1="1.5" y1="35.75" x2="5.13" y2="35.75"/><line class="i" x1="1.19" y1="12.5" x2="4.82" y2="12.5"/><line class="i" x1="13.19" y1="16.5" x2="16.82" y2="16.5"/><line class="i" x1="14.82" y1="23.13" x2="18.44" y2="23.13"/><line class="i" x1="7.69" y1="7.13" x2="11.32" y2="7.13"/><line class="i" x1=".32" y1="3.88" x2="3.94" y2="3.88"/><line class="i" x1="30" y1="21.75" x2="33.63" y2="21.75"/><line class="i" x1="43.5" y1="26.25" x2="47.13" y2="26.25"/><line class="i" x1="42.69" y1="18.38" x2="46.32" y2="18.38"/><line class="i" x1="53.69" y1="21.63" x2="57.32" y2="21.63"/><line class="i" x1="60.69" y1="16.38" x2="64.32" y2="16.38"/><line class="i" x1="36.19" y1="11.25" x2="39.82" y2="11.25"/><line class="i" x1="28.69" y1="8.25" x2="32.32" y2="8.25"/><line class="i" x1="27.75" y1="1.5" x2="31.38" y2="1.5"/><line class="i" x1="40.19" y1="4" x2="43.82" y2="4"/><line class="i" x1="55.19" y1="7" x2="58.82" y2="7"/><line class="i" x1="65.38" y1="53.88" x2="69" y2="53.88"/><line class="i" x1="66.5" y1="41" x2="70.13" y2="41"/><line class="i" x1="67.19" y1="18.38" x2="70.82" y2="18.38"/><line class="i" x1="68" y1="26.38" x2="71.63" y2="26.38"/><line class="i" x1="7.38" y1="3.12" x2="11.75" y2="3.12"/><line class="i" x1="13.25" y1="7.87" x2="17.62" y2="7.87"/><line class="i" x1="38.88" y1="6" x2="47.62" y2="6"/><line class="i" x1="6.75" y1="13.37" x2="11.12" y2="13.37"/><line class="i" x1="19.5" y1="17.37" x2="23.88" y2="17.37"/><line class="i" x1="54.88" y1="3" x2="59.25" y2="3"/><line class="i" x1="60.75" y1="7.75" x2="65.12" y2="7.75"/><line class="i" x1="54.25" y1="13.25" x2="58.62" y2="13.25"/><line class="i" x1="1.56" y1="27.12" x2="5.94" y2="27.12"/><line class="i" x1="27.19" y1="25.25" x2="35.94" y2="25.25"/><line class="i" x1="7.81" y1="36.62" x2="12.19" y2="36.62"/><line class="i" x1="43.19" y1="22.25" x2="47.56" y2="22.25"/><line class="i" x1="49.06" y1="27" x2="53.44" y2="27"/><line class="i" x1="42.56" y1="32.5" x2="46.94" y2="32.5"/><line class="i" x1="14.44" y1="43.87" x2="18.81" y2="43.87"/><line class="i" x1="20.31" y1="48.62" x2="24.69" y2="48.62"/><line class="i" x1="45.94" y1="46.75" x2="54.69" y2="46.75"/><line class="i" x1="13.81" y1="54.12" x2="18.19" y2="54.12"/><line class="i" x1="26.56" y1="58.12" x2="30.94" y2="58.12"/><line class="i" x1="61.94" y1="43.75" x2="66.31" y2="43.75"/><line class="i" x1="-1.06" y1="65.38" x2="3.31" y2="65.38"/><line class="i" x1="4.81" y1="70.13" x2="9.19" y2="70.13"/><line class="i" x1="30.44" y1="68.25" x2="39.19" y2="68.25"/><line class="i" x1="46.44" y1="65.25" x2="50.81" y2="65.25"/><line class="i" x1="52.31" y1="70" x2="56.69" y2="70"/><line class="i" x1="2.38" y1="40.25" x2="6.75" y2="40.25"/><line class="i" x1="63.75" y1="10" x2="68.12" y2="10"/><line class="i" x1="63.56" y1="70.75" x2="67.94" y2="70.75"/><line class="i" x1="39.56" y1="59.75" x2="43.94" y2="59.75"/><line class="i" x1="20.5" y1="38.25" x2="26.94" y2="38.25"/><line class="i" x1="67.69" y1="22.37" x2="72.06" y2="22.37"/><line class="i" x1="67.06" y1="32.62" x2="71.44" y2="32.62"/><line class="i" x1="68.12" y1="44.25" x2="72.5" y2="44.25"/></g><g><line class="i" x1="-6.5" y1="18" x2=".38" y2="18"/><line class="i" x1="-5.69" y1="26" x2="1.19" y2="26"/><line class="i" x1="-4.31" y1="22.37" x2=".06" y2="22.37"/><line class="i" x1="-3.88" y1="44.25" x2=".5" y2="44.25"/></g></g></pattern></defs><g id="a"><path class="f" d="M181.4,234.12c0,8.2-23.49,14.85-52.47,14.85-22.68,0-41.99-4.07-49.32-9.77-12.06-.04-23.41-.56-33.4-1.47-.68-.06-1.28,.52-1.18,1.19,.02,.1,.03,.19,.03,.28,0,3.53-10.09,6.38-22.53,6.38s-22.53-2.85-22.53-6.38c0-2.49,5.04-4.64,12.39-5.68,1.1-.16,1.29-1.67,.27-2.09-3.6-1.48-5.58-3.1-5.58-4.81,0-6.95,33.02-12.59,73.76-12.59,29.47,0,59.74,2.96,74.23,7.22,15.73,2.56,26.33,7.37,26.33,12.87Z"/></g><g id="c"><g><g><path class="p" d="M161.85,203.7c2.12,1.42,3.72,3.87,4.52,7,2.65,10.35-3.48,17.65-7.48,17.13,1.28-3.12,1.7-6.28,1.71-7.29,0-1.15-1.34-2.83-3.08-.96-.06-.27-.13-.52-.22-.75-1.24-3.32-3.98-2.99-5.18,.2-.06-.29-.12-.55-.17-.78-1.08-4.39-4.04-4.15-5.68,.54-.36,1.04,1.83,8.78,1.96,9.3,.42,1.73,.77,2.91,1.08,3.68h-.03c-.05-.11-.1-.23-.16-.36-.78-1.8-4.3-6.17-8.17-9.04,.85-5.4-1.32-10.01-4.93-13.62h0c6.18-38.55,2.28-58.05-3.26-68.46l.07-.04s2.82,2.38,.25-3.99c-.55-1.35-.57-1.63-.89-2.49l.06-.02c.25-1.08-.19-3.37-1.22-5.73,11.38-.39,23.82,3.94,30.17,13.12,.29,.4,.55,.82,.81,1.24,6.22,10.31,7.04,44.03-.15,61.31h-.01Z"/><path class="p" d="M154.68,111.17c13.37,16.1,9.66,24.87,6.52,29.97-6.35-9.18-18.79-13.51-30.17-13.12-1.42-3.24-3.96-6.61-7.43-7.22-.67-4.06-4.63-10.04-9.91-11.16,.24,0,1.36-3.23-3.55-4.34-.21,0-.42,.01-.63,.02v-.12c-.28-.79-1.42-2.09-4.67-1.99,0,0-.15-2.77-3.48-3.16-.64,.06-1.41,.24-2.25,.51,.88-1.67,3.02-3.81,6.04-5.77,6.52-4.24,17.09-7.67,27.65-3.87,2.65,.95,5.29,2.36,7.87,4.32,6.42,4.88,10.35,11.52,14.01,15.93Z"/><path class="n" d="M158.89,227.83c-.73,1.78-1.74,3.56-3.12,4.91-.5,.5-1.06,.3-.96-.95,1.37-2.68,3.08-7.97,2.83-11.37-.03-.3-.07-.58-.12-.84,1.74-1.87,3.08-.19,3.08,.96-.01,1.01-.43,4.17-1.71,7.29Z"/><path class="n" d="M157.64,220.42c.25,3.4-1.46,8.69-2.83,11.37-.53,1.02-1,1.66-1.31,1.69-1.15,.1-1.37-5.14-1.4-5.98,.68-3.81,.37-6.71,.02-8.47,1.2-3.19,3.94-3.52,5.18-.2,.09,.23,.16,.48,.22,.75,.05,.26,.09,.54,.12,.84Z"/><path class="n" d="M152.1,227.5c-.26,1.49-.68,3.13-1.3,4.89,0,0-.44,2.04-1.49-.62-.31-.77-.66-1.95-1.08-3.68-.13-.52-2.32-8.26-1.96-9.3,1.64-4.69,4.6-4.93,5.68-.54,.05,.23,.11,.49,.17,.78,.35,1.76,.66,4.66-.02,8.47Z"/><path class="n" d="M149.28,231.78c1.26,3.16-.38,2.5-1.03,2.03-.61-.46-1.99-.98-1.99-.98-.35-.66-.98-1.57-1.88-2.66-2.45-2.97-10.61-7.97-13.55-8.06,2.21-3.91,6.34-2.55,10.12,.26,3.87,2.87,7.39,7.24,8.17,9.04,.06,.13,.11,.25,.16,.37Z"/><path class="o" d="M120.85,71.85c-5.13,.86-21.39,3.44-26.26,2.28,0,0-13.75-1.81-19.06-20.39,0,0,8.35-.37,15.02-8.76,3.43-4.3,4.15-7.61,12.56-14.84,8.4-7.22,6.65-21.05-7.96-13.57-3.75,1.93-7.53,7.53-7.53,7.53,0,0-4.57,9.07-10.93,11.88,.83-9.56,4.72-21.69,24.17-28.06,6.88-2.26,21.49,3.51,26.51,1.12,2.18-1.04,2.8-1.34,2.97-1.42,3.41,1.8,6.24,3.98,8.55,6.45-7.59-6.4-10.72,3.52,7.77,14.65,.78,3.17,1.19,6.47,1.27,9.83,.31,12.3-6.62,23.56-15.3,27.93-.5,.25-1,.48-1.5,.68-.73,.3-1.46,.54-2.2,.73v2.36s-.31,3.54,1.31,4.87c0,0-2.6,.54-5.4-1.08,0,0,.35,1.56,1.71,3.23-.21-.01-.44-.04-.7-.09-2.07-.39-5.47-2.05-5-5.33Zm15.6-27.05c1.66-2.31,4.11-7.8-.98-19.79-1.19-2.81-3.43-5.11-6.19-6.42-8.8-4.16-17.37,3.92-19.39,8.16-5.01,10.49-3.61,16.38-1.33,19.28,2.28,2.89,7.56,3.73,13.83-.65,5.26-3.69,8.19-2.21,9.47-1.82,2.86,.88,3.66,2.54,4.59,1.24Z"/><path class="n" d="M146.26,232.83c.6,1.14,.39,1.58-.65,1.1-1.23-.57-2.8-.7-2.8-.7-3.18-4.67-11.1-7.48-17.07-8.39-.31-.05-.61-.09-.89-.12,.7-3.02,3.59-2.69,5.98-2.61,2.94,.09,11.1,5.09,13.55,8.06,.9,1.09,1.53,2,1.88,2.66Z"/><path class="n" d="M142.81,233.23s1.24,2.79-.7,1.4c-1.06-.76-21.53-4.82-23.71-8.14,.37-1.21,2.18-2.26,6.45-1.77,.28,.03,.58,.07,.89,.12,5.97,.91,13.89,3.72,17.07,8.39Z"/><path class="r" d="M138.89,14.07c3.95,4.2,6.43,9.22,7.77,14.65-18.49-11.13-15.36-21.05-7.77-14.65Zm1.28,4.45c.23-.32-.28-1.08-1.13-1.69-.85-.62-1.73-.86-1.96-.54s.27,1.08,1.13,1.7c.85,.61,1.73,.85,1.96,.53Z"/><path class="p" d="M136.02,208.75c3.61,3.61,5.78,8.22,4.93,13.62-3.78-2.81-7.91-4.17-10.12-.26-2.39-.08-5.28-.41-5.98,2.61-4.27-.49-6.08,.56-6.45,1.77-.6,.4-4.6-.74-4.6-.74-3.31,4.49-16.12,5.67-19.47,5.76-3.63,.1-28.46-.85-35.84-4.43-5.83,1.9-8.99,1.9-15.53-.84,3.66-.21,6.87-3.04,5.83-3.31-10.18-2.6-12.86-8.78-12.86-8.78-9.27-7.8-13.61-19.73-16.44-31.16,53.11,16.82,62.52-29,70.6-39.35,7.18-9.89,10.1-7.95,15-11.69,4.89-3.74,4.64-6.66,4.64-6.66,0,0,1.94,2.8,1.45,3.94,0,0,4.68-2.13,4.09-3.16,0,0,2.29,1.32,1.55,3.39,0,0,2.99-1.37,6.19,.05,.54,.24,1.08,.56,1.62,.98,2.47,1.91,5.49,4.82,8.13,9.8,5.54,10.41,9.44,29.91,3.26,68.45h0Z"/><path class="s" d="M139.04,16.83c.85,.61,1.36,1.37,1.13,1.69s-1.11,.08-1.96-.53c-.86-.62-1.36-1.38-1.13-1.7s1.11-.08,1.96,.54Z"/><path class="q" d="M135.47,25.01c5.09,11.99,2.64,17.48,.98,19.79-.93,1.3-1.73-.36-4.59-1.24-1.28-.39-4.21-1.87-9.47,1.82-6.27,4.38-11.55,3.54-13.83,.65-2.28-2.9-3.68-8.79,1.33-19.28,2.02-4.24,10.59-12.32,19.39-8.16,2.76,1.31,5,3.61,6.19,6.42Zm-3.01,2.74c.64-5.56-4.29-5.85-8.03-5.85-11.1,0-5.26,5.72-2.28,7.42,2.16,1.23,9.44,5.96,10.31-1.57Z"/><path class="n" d="M133.08,136.26c2.57,6.37-.25,3.99-.25,3.99l-.07,.04c-2.64-4.98-5.66-7.89-8.13-9.8-.54-.42-1.08-.74-1.62-.98,1.37-.39,1.46-4.23,.95-5.5,3.85,2.63,5.56,3.82,7.14,7.24,.59,1.28,.9,2.01,1.09,2.52,.32,.86,.34,1.14,.89,2.49Z"/><path class="o" d="M135.1,72.17s-3.06,0-6.17-1.92v-2.36c.74-.19,1.47-.43,2.2-.73,.5-.2,1-.43,1.5-.68-.86,1.54,2.47,5.69,2.47,5.69Z"/><path class="t" d="M132.8,90.91h0c-10.56-3.79-21.13-.36-27.65,3.88l-1.33-2.18c-1.41,.87-2.28,3.03-2.28,3.03-.85-.75-2.28-4.77-2.28-4.77-.65,1.85-3.16,4.77-3.16,4.77-.23-3.25-1.83-5.52-1.83-5.52-.33,1.85-4.45,3.25-4.45,3.25,.22-3.37-.9-5.77-.9-5.77-.75,1.52-3.65,1.28-3.65,1.28,.35-1.86-.72-3.32-.72-3.32-2.34,2.6-5.57,2.06-5.57,2.06,.32-2.06-.78-4.14-.78-4.14-.11,1.31-4.54,1.43-4.54,1.43,.76-1.96,0-4.78,0-4.78-.54,1.41-4.01,1.74-4.01,1.74,1.3-3.58,0-6.51,0-6.51-.87,2.06-6.29,1.63-6.29,1.63,1.19-1.52,.76-3.58,.76-3.58-.76,1.52-5.25,1.84-5.25,1.84,1.04-2.6,0-4.63,0-4.63,2.5-3.54,2.95-19.32,2.95-19.32,.68-9.32,3.08-31.01,21.63-42.91,7.16-4.6,20.63-8.89,37.55-4.39,3.51,.93,6.61,2.15,9.34,3.62-.17,.08-.79,.38-2.97,1.42-5.02,2.39-19.63-3.38-26.51-1.12-19.45,6.37-23.34,18.5-24.17,28.06,6.36-2.81,10.93-11.88,10.93-11.88,0,0,3.78-5.6,7.53-7.53,14.61-7.48,16.36,6.35,7.96,13.57-8.41,7.23-9.13,10.54-12.56,14.84-6.67,8.39-15.02,8.76-15.02,8.76,5.31,18.58,19.06,20.39,19.06,20.39,4.87,1.16,21.13-1.42,26.26-2.28-.47,3.28,2.93,4.94,5,5.33h0c1.57,4.9,4.87,12.13,6.95,13.73ZM98.81,22.45c.82-.65,1.28-1.44,1.04-1.74-.25-.31-1.12-.03-1.94,.63s-1.29,1.44-1.04,1.75c.25,.3,1.11,.02,1.94-.64Z"/><path class="s" d="M124.43,21.9c3.74,0,8.67,.29,8.03,5.85-.87,7.53-8.15,2.8-10.31,1.57-2.98-1.7-8.82-7.42,2.28-7.42Z"/><path class="n" d="M131.03,128.02c1.03,2.36,1.47,4.65,1.22,5.73l-.06,.02c-.19-.51-.5-1.24-1.09-2.52-1.58-3.42-3.29-4.61-7.14-7.24,0,0,.4-1.28-.36-3.21,3.47,.61,6.01,3.98,7.43,7.22Z"/><path class="p" d="M94.32,102.79c-3.62,2.11-7.03,5.1-7.4,7.74l.05,.05c-1.99,1.99-3.54,4.36-4.47,7.07-1.61,4.71,.46,3.19,2.09,1.96-.29,1.56,3.93-.04,11.74-4.22,1.34-.71,1.78-2.85,1.58-4.28,1.43,1.22,1.73,2.91,1.73,2.91,1.12-1.07,1.74-2.45,1.53-3.11,.77,1.27,.61,2.14,.61,2.14,3.61-2.37,8.79-4.1,11.9-3.41h.01c5.28,1.12,9.24,7.1,9.91,11.16,.76,1.93,.36,3.21,.36,3.21,.51,1.27,.42,5.11-.95,5.5-3.2-1.42-6.19-.05-6.19-.05,.74-2.07-1.55-3.39-1.55-3.39,.59,1.03-4.09,3.16-4.09,3.16,.49-1.14-1.45-3.94-1.45-3.94,0,0,.25,2.92-4.64,6.66-4.9,3.74-7.82,1.8-15,11.69-8.08,10.35-17.49,56.17-70.6,39.35-16.94-6.73-17.33-62.19,18.59-88.19,13.51-9.77,19.47-21.39,20.59-23.75,.13-.28,.2-.43,.2-.43,0,0,1.04,2.03,0,4.63,0,0,4.49-.32,5.25-1.84,0,0,.43,2.06-.76,3.58,0,0,5.42,.43,6.29-1.63,0,0,1.3,2.93,0,6.51,0,0,3.47-.33,4.01-1.74,0,0,.76,2.82,0,4.78,0,0,4.43-.12,4.54-1.43,0,0,1.1,2.08,.78,4.14,0,0,3.23,.54,5.57-2.06,0,0,1.07,1.46,.72,3.32,0,0,2.9,.24,3.65-1.28,0,0,1.12,2.4,.9,5.77,0,0,4.12-1.4,4.45-3.25,0,0,1.6,2.27,1.83,5.52,0,0,2.51-2.92,3.16-4.77,0,0,1.43,4.02,2.28,4.77,0,0,.87-2.16,2.28-3.03l1.33,2.18c-3.02,1.96-5.16,4.1-6.04,5.77h0c-1.46,.49-3.15,1.27-4.79,2.23Z"/><path class="n" d="M110.14,105.3c4.91,1.11,3.79,4.34,3.55,4.34h-.01c-3.11-.69-8.29,1.04-11.9,3.41,0,0,.16-.87-.61-2.14,.21,.66-.41,2.04-1.53,3.11,0,0-.3-1.69-1.73-2.91l-2.49-1.08c4.53-2.48,9.93-4.52,14.09-4.71,.21,0,.42-.02,.63-.02Z"/><path class="n" d="M109.51,105.2v.12c-4.16,.19-9.56,2.23-14.09,4.71-2.86,1.57-5.36,3.31-6.98,4.88-2.46,2.38-3.7,3.93-3.85,4.7-1.63,1.23-3.7,2.75-2.09-1.96,.93-2.71,2.48-5.08,4.47-7.07,4.56-4.58,11.36-7.17,17.87-7.37,3.25-.1,4.39,1.2,4.67,1.99Z"/><path class="n" d="M101.36,100.05c3.33,.39,3.48,3.16,3.48,3.16-6.51,.2-13.31,2.79-17.87,7.37l-.05-.05c.37-2.64,3.78-5.63,7.4-7.74,1.64-.96,3.33-1.74,4.79-2.22h0c.84-.28,1.61-.46,2.25-.52Z"/><path class="s" d="M99.85,20.71c.24,.3-.22,1.09-1.04,1.74-.83,.66-1.69,.94-1.94,.64-.25-.31,.22-1.09,1.04-1.75s1.69-.94,1.94-.63Z"/><path class="n" d="M97.91,111.11c.2,1.43-.24,3.57-1.58,4.28-7.81,4.18-12.03,5.78-11.74,4.22,.15-.77,1.39-2.32,3.85-4.7,1.62-1.57,4.12-3.31,6.98-4.88l2.49,1.08Z"/></g><g><path class="l" d="M58.67,71.05c-1.12,2.36-7.08,13.98-20.59,23.75C2.16,120.8,2.55,176.26,19.49,182.99c53.11,16.82,62.52-29,70.6-39.35,7.18-9.89,10.1-7.95,15-11.69,4.89-3.74,4.64-6.66,4.64-6.66,0,0,1.94,2.8,1.45,3.94,0,0,4.68-2.13,4.09-3.16,0,0,2.29,1.32,1.55,3.39,0,0,2.99-1.37,6.19,.05,.54,.24,1.08,.56,1.62,.98,2.47,1.91,5.49,4.82,8.13,9.8,5.54,10.41,9.44,29.91,3.26,68.45"/><path class="l" d="M58.67,71.05c.13-.28,.2-.43,.2-.43,2.5-3.54,2.95-19.32,2.95-19.32,.68-9.32,3.08-31.01,21.63-42.91,7.16-4.6,20.63-8.89,37.55-4.39,3.51,.93,6.61,2.15,9.34,3.62,3.41,1.8,6.24,3.98,8.55,6.45,3.95,4.2,6.43,9.22,7.77,14.65,.78,3.17,1.19,6.47,1.27,9.83,.31,12.3-6.62,23.56-15.3,27.93-.5,.25-1,.48-1.5,.68-.73,.3-1.46,.54-2.2,.73"/><path class="l" d="M132.63,66.48c-.86,1.54,2.47,5.69,2.47,5.69,0,0-3.06,0-6.17-1.92,0,0-.31,3.54,1.31,4.87,0,0-2.6,.54-5.4-1.08,0,0,.35,1.56,1.71,3.23-.21-.01-.44-.04-.7-.09-2.07-.39-5.47-2.05-5-5.33"/><path class="l" d="M146.66,28.72c-18.49-11.13-15.36-21.05-7.77-14.65"/><path class="k" d="M135.47,25.01c5.09,11.99,2.64,17.48,.98,19.79-.93,1.3-1.73-.36-4.59-1.24-1.28-.39-4.21-1.87-9.47,1.82-6.27,4.38-11.55,3.54-13.83,.65-2.28-2.9-3.68-8.79,1.33-19.28,2.02-4.24,10.59-12.32,19.39-8.16,2.76,1.31,5,3.61,6.19,6.42Z"/><path class="m" d="M132.46,27.75c-.87,7.53-8.15,2.8-10.31,1.57-2.98-1.7-8.82-7.42,2.28-7.42,3.74,0,8.67,.29,8.03,5.85Z"/><path class="l" d="M140.95,222.37c.85-5.4-1.32-10.01-4.93-13.62-6.44-6.46-17.46-9.75-23.98-8.76-3.41,.73-5.41,2.82-8.86,6.67"/><path class="j" d="M118.4,226.49c.37-1.21,2.18-2.26,6.45-1.77,.28,.03,.58,.07,.89,.12,5.97,.91,13.89,3.72,17.07,8.39,0,0,1.24,2.79-.7,1.4-1.06-.76-21.53-4.82-23.71-8.14Z"/><path class="j" d="M124.85,224.72c.7-3.02,3.59-2.69,5.98-2.61,2.94,.09,11.1,5.09,13.55,8.06,.9,1.09,1.53,2,1.88,2.66,.6,1.14,.39,1.58-.65,1.1-1.23-.57-2.8-.7-2.8-.7"/><path class="j" d="M130.83,222.11c2.21-3.91,6.34-2.55,10.12,.26,3.87,2.87,7.39,7.24,8.17,9.04,.06,.13,.11,.25,.16,.37,1.26,3.16-.38,2.5-1.03,2.03-.61-.46-1.99-.98-1.99-.98"/><path class="l" d="M157.89,202.32c1.45,.1,2.78,.58,3.96,1.38,2.12,1.42,3.72,3.87,4.52,7,2.65,10.35-3.48,17.65-7.48,17.13-.03,.01-.05,0-.07,0"/><path class="j" d="M149.31,231.77c-.31-.77-.66-1.95-1.08-3.68-.13-.52-2.32-8.26-1.96-9.3,1.64-4.69,4.6-4.93,5.68-.54,.05,.23,.11,.49,.17,.78,.35,1.76,.66,4.66-.02,8.47-.26,1.49-.68,3.13-1.3,4.89,0,0-.44,2.04-1.49-.62Z"/><path class="j" d="M152.12,219.03c1.2-3.19,3.94-3.52,5.18-.2,.09,.23,.16,.48,.22,.75,.05,.26,.09,.54,.12,.84,.25,3.4-1.46,8.69-2.83,11.37-.53,1.02-1,1.66-1.31,1.69-1.15,.1-1.37-5.14-1.4-5.98v-.11"/><path class="j" d="M157.52,219.58c1.74-1.87,3.08-.19,3.08,.96-.01,1.01-.43,4.17-1.71,7.29-.73,1.78-1.74,3.56-3.12,4.91-.5,.5-1.06,.3-.96-.95"/><path class="l" d="M118.4,226.49c-.6,.4-4.6-.74-4.6-.74-3.31,4.49-16.12,5.67-19.47,5.76-3.63,.1-28.46-.85-35.84-4.43-5.83,1.9-8.99,1.9-15.53-.84,3.66-.21,6.87-3.04,5.83-3.31-10.18-2.6-12.86-8.78-12.86-8.78-9.27-7.8-13.61-19.73-16.44-31.16"/><path class="l" d="M125.85,77.19c1.57,4.89,4.87,12.12,6.95,13.72"/><path class="l" d="M99.11,100.56c.88-1.67,3.02-3.81,6.04-5.77,6.52-4.24,17.09-7.67,27.65-3.87,2.65,.95,5.29,2.36,7.87,4.32,6.42,4.88,10.35,11.52,14.01,15.93,13.37,16.1,9.66,24.87,6.52,29.97"/><path class="j" d="M113.69,109.64c.24,0,1.36-3.23-3.55-4.34-.21,0-.42,.01-.63,.02-4.16,.19-9.56,2.23-14.09,4.71-2.86,1.57-5.36,3.31-6.98,4.88-2.46,2.38-3.7,3.93-3.85,4.7-.29,1.56,3.93-.04,11.74-4.22,1.34-.71,1.78-2.85,1.58-4.28,1.43,1.22,1.73,2.91,1.73,2.91,1.12-1.07,1.74-2.45,1.53-3.11,.77,1.27,.61,2.14,.61,2.14,3.61-2.37,8.79-4.1,11.9-3.41"/><line class="j" x1="113.69" y1="109.64" x2="113.68" y2="109.64"/><path class="l" d="M123.01,129.51c1.37-.39,1.46-4.23,.95-5.5,0,0,.4-1.28-.36-3.21-.67-4.06-4.63-10.04-9.91-11.16"/><path class="j" d="M84.59,119.61c-1.63,1.23-3.7,2.75-2.09-1.96,.93-2.71,2.48-5.08,4.47-7.07,4.56-4.58,11.36-7.17,17.87-7.37,3.25-.1,4.39,1.2,4.67,1.99"/><path class="j" d="M123.6,120.8c3.47,.61,6.01,3.98,7.43,7.22,1.03,2.36,1.47,4.65,1.22,5.73"/><path class="l" d="M131.03,128.02c11.38-.39,23.82,3.94,30.17,13.12,.29,.4,.55,.82,.81,1.24,6.22,10.31,7.04,44.03-.15,61.31"/><path class="l" d="M58.87,70.62s1.04,2.03,0,4.63c0,0,4.49-.32,5.25-1.84,0,0,.43,2.06-.76,3.58,0,0,5.42,.43,6.29-1.63,0,0,1.3,2.93,0,6.51,0,0,3.47-.33,4.01-1.74,0,0,.76,2.82,0,4.78,0,0,4.43-.12,4.54-1.43,0,0,1.1,2.08,.78,4.14,0,0,3.23,.54,5.57-2.06,0,0,1.07,1.46,.72,3.32,0,0,2.9,.24,3.65-1.28,0,0,1.12,2.4,.9,5.77,0,0,4.12-1.4,4.45-3.25,0,0,1.6,2.27,1.83,5.52,0,0,2.51-2.92,3.16-4.77,0,0,1.43,4.02,2.28,4.77,0,0,.87-2.16,2.28-3.03l1.33,2.18"/><path class="h" d="M96.87,23.09c.25,.3,1.11,.02,1.94-.64,.82-.65,1.28-1.44,1.04-1.74-.25-.31-1.12-.03-1.94,.63s-1.29,1.44-1.04,1.75Z"/><path class="h" d="M137.08,16.29c-.23,.32,.27,1.08,1.13,1.7,.85,.61,1.73,.85,1.96,.53s-.28-1.08-1.13-1.69c-.85-.62-1.73-.86-1.96-.54Z"/><path class="j" d="M99.11,100.56c.84-.27,1.61-.45,2.25-.51,3.33,.39,3.48,3.16,3.48,3.16"/><line class="l" x1="99.11" y1="100.57" x2="99.11" y2="100.56"/><path class="j" d="M86.92,110.53c.37-2.64,3.78-5.63,7.4-7.74,1.64-.96,3.33-1.74,4.79-2.22"/><path class="l" d="M32.67,143.64c1.42-7.9,9.68-14.99,9.68-14.99,5.68-7.67,18.45-15.57,18.45-15.57,7.96-7.11,27.27-13.32,33.52-10.29"/><path class="j" d="M132.83,140.25s2.82,2.38,.25-3.99c-.55-1.35-.57-1.63-.89-2.49-.19-.51-.5-1.24-1.09-2.52-1.58-3.42-3.29-4.61-7.14-7.24"/><path class="l" d="M130.41,7.59l-.07,.03c-.17,.08-.79,.38-2.97,1.42-5.02,2.39-19.63-3.38-26.51-1.12-19.45,6.37-23.34,18.5-24.17,28.06,6.36-2.81,10.93-11.88,10.93-11.88,0,0,3.78-5.6,7.53-7.53,14.61-7.48,16.36,6.35,7.96,13.57-8.41,7.23-9.13,10.54-12.56,14.84-6.67,8.39-15.02,8.76-15.02,8.76,5.31,18.58,19.06,20.39,19.06,20.39,4.87,1.16,21.13-1.42,26.26-2.28,.99-.17,1.57-.27,1.57-.27"/></g></g></g><g id="d"><path class="o" d="M125.86,7.95c1.38-2.1,1.01-5.51,.03-6.96,0,0-.51,4.22-1.39,5.19,.13-1.64-.8-4.61-2.94-6.17,0,0,1.78,3.82-.07,5.57,0,0,0-1.76-1.45-3.21,0,0,.35,4.21-1.57,4.94,6.48,1.62,6.94,.98,7.4,.64Z"/></g><g id="e"><text class="u" transform="translate(9.25 221.64) rotate(-23.3)"><tspan x="0" y="0">I</tspan></text><text class="u" transform="translate(10.74 221.25) rotate(-18.38)"><tspan x="0" y="0">s</tspan></text><text class="u" transform="translate(12.05 220.43) rotate(-18.14)"><tspan x="0" y="0">h</tspan></text><text class="u" transform="translate(13.74 219.85) rotate(-17.57) scale(1 .74)"><tspan x="0" y="0">i</tspan></text><text class="u" transform="translate(14.63 219.43) rotate(-17.66) scale(.83)"><tspan x="0" y="0">k</tspan></text><text class="u" transform="translate(16.54 219.08) rotate(-17.35)"><tspan x="0" y="0">a</tspan></text><text class="u" transform="translate(18.23 218.53) rotate(-17.05)"><tspan x="0" y="0">w</tspan></text><text class="u" transform="translate(20.53 217.74) rotate(-15.72)"><tspan x="0" y="0">a</tspan></text></g></svg>